<?xml version="1.0" encoding="utf-8"?>
<!-- Generator: Adobe Illustrator 19.0.0, SVG Export Plug-In . SVG Version: 6.00 Build 0)  -->
<svg version="1.1" id="Layer_1" xmlns="http://www.w3.org/2000/svg" xmlns:xlink="http://www.w3.org/1999/xlink" x="0px" y="0px"
	 viewBox="0 0 40 40" style="enable-background:new 0 0 40 40;" xml:space="preserve">
<style type="text/css">
	.st0{fill:url(#XMLID_2_);}
	.st1{fill:#FFFFFF;}
</style>
<g id="XMLID_15_">
	<radialGradient id="XMLID_2_" cx="12.688" cy="41.5068" r="49.3123" gradientUnits="userSpaceOnUse">
		<stop  offset="9.693880e-002" style="stop-color:#FFD879"/>
		<stop  offset="0.1539" style="stop-color:#FCCB76"/>
		<stop  offset="0.2583" style="stop-color:#F5AA6C"/>
		<stop  offset="0.3976" style="stop-color:#E9755E"/>
		<stop  offset="0.449" style="stop-color:#E45F58"/>
		<stop  offset="0.6786" style="stop-color:#D22A9C"/>
		<stop  offset="1" style="stop-color:#6968DF"/>
	</radialGradient>
	<path id="XMLID_13_" class="st0" d="M39,31c0,4.2-3.4,7.6-7.6,7.6H9.4c-4.2,0-7.6-3.4-7.6-7.6V9.1c0-4.2,3.4-7.6,7.6-7.6h21.9
		c4.2,0,7.6,3.4,7.6,7.6V31z"/>
	<g id="XMLID_16_">
		<path id="XMLID_21_" class="st1" d="M25.8,6H15c-4.8,0-8.6,3.9-8.6,8.6v10.8c0,4.8,3.9,8.6,8.6,8.6h10.8c4.8,0,8.6-3.9,8.6-8.6
			V14.6C34.4,9.9,30.6,6,25.8,6z M31.7,24.4c0,3.9-3.1,7-7,7H16c-3.9,0-7-3.1-7-7v-8.7c0-3.9,3.1-7,7-7h8.7c3.9,0,7,3.1,7,7V24.4z"
			/>
		<path id="XMLID_18_" class="st1" d="M20.8,12.7c-4.1,0-7.4,3.3-7.4,7.4c0,4.1,3.3,7.4,7.4,7.4c4.1,0,7.4-3.3,7.4-7.4
			C28.2,16,24.9,12.7,20.8,12.7z M20.8,24.5c-2.5,0-4.4-2-4.4-4.4c0-2.5,2-4.4,4.4-4.4c2.5,0,4.4,2,4.4,4.4
			C25.2,22.5,23.2,24.5,20.8,24.5z"/>
		<circle id="XMLID_5_" class="st1" cx="27.7" cy="12.6" r="1.9"/>
	</g>
</g>
</svg>
