<?xml version="1.0" encoding="utf-8"?>
<!-- Generator: Adobe Illustrator 19.0.0, SVG Export Plug-In . SVG Version: 6.00 Build 0)  -->
<svg version="1.1" id="Layer_1" xmlns="http://www.w3.org/2000/svg" xmlns:xlink="http://www.w3.org/1999/xlink" x="0px" y="0px"
	 viewBox="0 0 40 40" style="enable-background:new 0 0 40 40;" xml:space="preserve">
<style type="text/css">
	.st0{fill:url(#XMLID_9_);}
	.st1{fill:#FFFFFF;}
	.st2{fill:url(#XMLID_10_);}
	.st3{fill:url(#XMLID_11_);}
</style>
<g id="XMLID_6_">
	<radialGradient id="XMLID_9_" cx="20.0396" cy="19.9606" r="18.5855" gradientUnits="userSpaceOnUse">
		<stop  offset="0.1684" style="stop-color:#C2181E"/>
		<stop  offset="0.7653" style="stop-color:#DE2925"/>
	</radialGradient>
	<path id="XMLID_4_" class="st0" d="M38.6,30.9c0,4.2-3.4,7.6-7.6,7.6H9.1c-4.2,0-7.6-3.4-7.6-7.6V9c0-4.2,3.4-7.6,7.6-7.6H31
		c4.2,0,7.6,3.4,7.6,7.6V30.9z"/>
	<g id="XMLID_7_">
		<path id="XMLID_3_" class="st1" d="M34,23.3c0,3.5-1.2,6.4-4.7,6.4H11.2c-3.5,0-5.1-2.9-5.1-6.4v-6.7c0-3.5,1.4-6.4,4.9-6.4h18.4
			c3.5,0,4.6,2.9,4.6,6.4V23.3z"/>
		<g id="XMLID_8_">
			<radialGradient id="XMLID_10_" cx="21.0443" cy="20.1232" r="3.8888" gradientUnits="userSpaceOnUse">
				<stop  offset="0.1684" style="stop-color:#C2181E"/>
				<stop  offset="0.7653" style="stop-color:#DE2925"/>
			</radialGradient>
			<polygon id="XMLID_2_" class="st2" points="17.2,16.2 24.8,20.1 17.2,24.1 			"/>
			<radialGradient id="XMLID_11_" cx="21.0443" cy="18.422" r="3.1139" gradientUnits="userSpaceOnUse">
				<stop  offset="0.3817" style="stop-color:#C2181E"/>
				<stop  offset="1" style="stop-color:#DE2925"/>
			</radialGradient>
			<polygon id="XMLID_1_" class="st3" points="17.2,16.2 23.9,20.6 24.8,20.1 17.8,16.5 17.2,16.2 			"/>
		</g>
	</g>
</g>
</svg>
